<?xml version="1.0" encoding="utf-8"?>
<!-- Generator: Adobe Illustrator 24.3.0, SVG Export Plug-In . SVG Version: 6.00 Build 0)  -->
<svg version="1.1" id="Layer_1" xmlns="http://www.w3.org/2000/svg" xmlns:xlink="http://www.w3.org/1999/xlink" x="0px" y="0px"
	 viewBox="0 0 100 70.76" style="enable-background:new 0 0 100 70.76;" xml:space="preserve">
<style type="text/css">
	.st0{fill:#FFFFFF;}
</style>
<g>
	<path class="st0" d="M34.79,0.72c-2.08,0.49-3.9,1.18-5.45,2.08c-1.54-0.9-3.36-1.59-5.45-2.08C21.8,0.24,19.52,0,17.08,0
		c-2.37,0-4.6,0.24-6.67,0.72c-2.06,0.49-3.85,1.16-5.4,2.04C3.48,3.62,2.25,4.64,1.35,5.8C0.45,6.95,0,8.18,0,9.47v61.29
		c0.96,0,2.01-0.21,3.14-0.63c1.12-0.42,2.17-0.95,3.14-1.63l2.45-2.42c0.68-0.93,1.02-1.9,1.02-2.94V9.47l0.58-1.79l1.59-1.63
		l2.32-1.21c0.87-0.32,1.82-0.48,2.85-0.48c1.03,0,1.98,0.16,2.85,0.48l2.32,1.21l1.6,1.63l0.57,1.79v61.29
		c0.97,0,2.04-0.21,3.19-0.63c1.16-0.42,2.22-0.95,3.2-1.63l2.45-2.42c0.68-0.93,1.02-1.9,1.02-2.94V9.47l0.58-1.79l1.59-1.63
		l2.32-1.21c0.86-0.32,1.82-0.48,2.85-0.48c1.03,0,1.98,0.16,2.85,0.48l2.32,1.21l1.6,1.63l0.57,1.79v61.29
		c0.97,0,2.01-0.21,3.14-0.63c1.13-0.42,2.18-0.95,3.14-1.63l2.46-2.42c0.67-0.93,1.02-1.9,1.02-2.94V9.47
		c0-1.29-0.45-2.52-1.36-3.67c-0.9-1.16-2.12-2.18-3.67-3.04c-1.55-0.88-3.37-1.54-5.45-2.04C46.12,0.24,43.92,0,41.6,0
		C39.16,0,36.88,0.24,34.79,0.72"/>
	<path class="st0" d="M100,54.15c0-1.74-0.35-3.43-1.06-5.07c-0.71-1.64-1.61-3.25-2.7-4.83c-1.09-1.58-2.3-3.1-3.62-4.59
		c-1.31-1.48-2.58-2.89-3.81-4.25c-1.23-1.41-2.61-2.9-4.15-4.44c-1.54-1.54-3-3.12-4.34-4.73c-1.36-1.61-2.47-3.23-3.37-4.87
		c-0.91-1.64-1.36-3.24-1.36-4.78V9.47l0.57-1.79l1.6-1.63l2.32-1.21c0.87-0.32,1.82-0.48,2.85-0.48c1.03,0,1.98,0.16,2.85,0.48
		l2.32,1.21l1.6,1.63l0.57,1.79v14.76c0.96,0,2.01-0.21,3.14-0.64c1.13-0.42,2.18-0.96,3.14-1.63l2.45-2.42
		c0.68-0.93,1.02-1.92,1.02-2.94V9.47c0-1.29-0.45-2.52-1.35-3.67c-0.91-1.16-2.12-2.18-3.68-3.04c-1.54-0.88-3.35-1.54-5.4-2.04
		C87.51,0.24,85.29,0,82.92,0s-4.6,0.24-6.67,0.72c-2.05,0.49-3.85,1.16-5.4,2.04c-1.55,0.87-2.77,1.88-3.68,3.04
		c-0.9,1.15-1.35,2.37-1.35,3.67v7.14c0,1.74,0.35,3.43,1.06,5.07c0.7,1.64,1.61,3.25,2.7,4.83c1.09,1.58,2.3,3.11,3.62,4.59
		c1.31,1.48,2.55,2.93,3.72,4.34c1.22,1.36,2.59,2.8,4.14,4.35c1.54,1.54,3,3.12,4.35,4.73c1.36,1.61,2.49,3.24,3.43,4.87
		c0.93,1.64,1.4,3.24,1.4,4.78v7.25l-0.57,1.73l-1.6,1.6l-2.32,1.2c-0.86,0.32-1.82,0.48-2.85,0.48c-1.03,0-1.98-0.16-2.85-0.48
		l-2.32-1.2l-1.6-1.6l-0.57-1.73V46.53c-0.96,0-2.01,0.21-3.14,0.62c-1.13,0.43-2.18,0.98-3.14,1.7l-2.45,2.41
		c-0.68,0.91-1.02,1.87-1.02,2.9v7.25c0,1.28,0.45,2.48,1.35,3.61c0.91,1.13,2.12,2.12,3.68,3c1.54,0.86,3.35,1.54,5.4,2.02
		c2.07,0.48,4.29,0.72,6.67,0.72s4.6-0.24,6.66-0.72c2.05-0.48,3.85-1.16,5.4-2.02c1.55-0.88,2.77-1.87,3.68-3
		c0.9-1.13,1.35-2.33,1.35-3.61V54.15z"/>
</g>
</svg>
